<?xml version="1.0" encoding="UTF-8" standalone="no"?>
<!-- Created with Inkscape (http://www.inkscape.org/) -->

<svg
   xmlns:dc="http://purl.org/dc/elements/1.1/"
   xmlns:cc="http://creativecommons.org/ns#"
   xmlns:rdf="http://www.w3.org/1999/02/22-rdf-syntax-ns#"
   xmlns:svg="http://www.w3.org/2000/svg"
   xmlns="http://www.w3.org/2000/svg"
   xmlns:sodipodi="http://sodipodi.sourceforge.net/DTD/sodipodi-0.dtd"
   xmlns:inkscape="http://www.inkscape.org/namespaces/inkscape"
   width="277.50571mm"
   height="165.50821mm"
   viewBox="0 0 983.28794 586.44639"
   id="svg4669"
   version="1.1"
   inkscape:version="0.91 r13725"
   sodipodi:docname="logo18.svg"
   inkscape:export-filename="/Users/admin/Dropbox (MIT)/CodeIt/Branding/Logo Brainstorm/logo18.png"
   inkscape:export-xdpi="89"
   inkscape:export-ydpi="89">
  <defs
     id="defs4671">
    <inkscape:path-effect
       effect="spiro"
       id="path-effect4549"
       is_visible="true" />
    <inkscape:path-effect
       is_visible="true"
       id="path-effect4545"
       effect="spiro" />
    <inkscape:path-effect
       effect="spiro"
       id="path-effect4541"
       is_visible="true" />
    <inkscape:path-effect
       is_visible="true"
       id="path-effect4537"
       effect="spiro" />
    <inkscape:path-effect
       effect="spiro"
       id="path-effect4533"
       is_visible="true" />
    <inkscape:path-effect
       effect="skeletal"
       id="path-effect4477"
       is_visible="true"
       pattern="m 136.42941,65.916716 c 0,-2.76 2.24,-5 5,-5 2.76,0 5,2.24 5,5 0,2.76 -2.24,5 -5,5 -2.76,0 -5,-2.24 -5,-5 z"
       copytype="single_stretched"
       prop_scale="1"
       scale_y_rel="false"
       spacing="0"
       normal_offset="0"
       tang_offset="0"
       prop_units="false"
       vertical_pattern="false"
       fuse_tolerance="0" />
    <inkscape:path-effect
       effect="spiro"
       id="path-effect4475"
       is_visible="true" />
    <inkscape:path-effect
       effect="skeletal"
       id="path-effect4423"
       is_visible="true"
       pattern="m 136.42941,65.916716 c 0,-2.76 2.24,-5 5,-5 2.76,0 5,2.24 5,5 0,2.76 -2.24,5 -5,5 -2.76,0 -5,-2.24 -5,-5 z"
       copytype="single_stretched"
       prop_scale="1"
       scale_y_rel="false"
       spacing="0"
       normal_offset="0"
       tang_offset="0"
       prop_units="false"
       vertical_pattern="false"
       fuse_tolerance="0" />
    <inkscape:path-effect
       effect="spiro"
       id="path-effect4421"
       is_visible="true" />
    <inkscape:path-effect
       effect="spiro"
       id="path-effect7855"
       is_visible="true" />
    <inkscape:path-effect
       is_visible="true"
       id="path-effect7851"
       effect="spiro" />
    <inkscape:path-effect
       effect="spiro"
       id="path-effect7847"
       is_visible="true" />
    <inkscape:path-effect
       effect="spiro"
       id="path-effect7824"
       is_visible="true" />
    <inkscape:path-effect
       is_visible="true"
       id="path-effect7820"
       effect="spiro" />
    <inkscape:path-effect
       is_visible="true"
       id="path-effect7816"
       effect="spiro" />
    <inkscape:path-effect
       effect="spiro"
       id="path-effect7105"
       is_visible="true" />
    <inkscape:path-effect
       effect="spiro"
       id="path-effect7101"
       is_visible="true" />
    <inkscape:path-effect
       effect="spiro"
       id="path-effect7097"
       is_visible="true" />
    <inkscape:path-effect
       effect="spiro"
       id="path-effect7093"
       is_visible="true" />
    <inkscape:path-effect
       effect="spiro"
       id="path-effect7089"
       is_visible="true" />
    <inkscape:path-effect
       effect="spiro"
       id="path-effect7085"
       is_visible="true" />
    <inkscape:path-effect
       is_visible="true"
       id="path-effect6385"
       effect="spiro" />
    <inkscape:path-effect
       effect="spiro"
       id="path-effect6357"
       is_visible="true" />
    <inkscape:path-effect
       effect="spiro"
       id="path-effect4756"
       is_visible="true" />
    <inkscape:path-effect
       effect="spiro"
       id="path-effect4752"
       is_visible="true" />
    <inkscape:path-effect
       effect="spiro"
       id="path-effect4748"
       is_visible="true" />
    <inkscape:path-effect
       is_visible="true"
       id="path-effect4744"
       effect="spiro" />
    <inkscape:path-effect
       effect="spiro"
       id="path-effect4740"
       is_visible="true" />
    <inkscape:path-effect
       effect="spiro"
       id="path-effect4736"
       is_visible="true" />
    <inkscape:path-effect
       is_visible="true"
       id="path-effect4732"
       effect="spiro" />
    <inkscape:path-effect
       is_visible="true"
       id="path-effect4728"
       effect="spiro" />
    <inkscape:path-effect
       effect="spiro"
       id="path-effect4724"
       is_visible="true" />
    <inkscape:path-effect
       is_visible="true"
       id="path-effect4720"
       effect="spiro" />
    <inkscape:path-effect
       effect="spiro"
       id="path-effect4716"
       is_visible="true" />
    <inkscape:path-effect
       effect="spiro"
       id="path-effect4712"
       is_visible="true" />
    <inkscape:path-effect
       is_visible="true"
       id="path-effect4708"
       effect="spiro" />
    <inkscape:path-effect
       is_visible="true"
       id="path-effect4704"
       effect="spiro" />
    <inkscape:path-effect
       effect="spiro"
       id="path-effect4681"
       is_visible="true" />
    <inkscape:path-effect
       is_visible="true"
       id="path-effect4840"
       effect="spiro" />
    <inkscape:path-effect
       is_visible="true"
       id="path-effect4836"
       effect="spiro" />
    <inkscape:path-effect
       is_visible="true"
       id="path-effect4756-5"
       effect="spiro" />
    <inkscape:path-effect
       is_visible="true"
       id="path-effect4752-4"
       effect="spiro" />
    <inkscape:path-effect
       is_visible="true"
       id="path-effect4748-2"
       effect="spiro" />
    <inkscape:path-effect
       effect="spiro"
       id="path-effect4744-4"
       is_visible="true" />
    <inkscape:path-effect
       is_visible="true"
       id="path-effect4740-0"
       effect="spiro" />
    <inkscape:path-effect
       is_visible="true"
       id="path-effect4736-2"
       effect="spiro" />
    <inkscape:path-effect
       effect="spiro"
       id="path-effect4732-8"
       is_visible="true" />
    <inkscape:path-effect
       effect="spiro"
       id="path-effect4728-0"
       is_visible="true" />
    <inkscape:path-effect
       is_visible="true"
       id="path-effect4724-9"
       effect="spiro" />
    <inkscape:path-effect
       effect="spiro"
       id="path-effect4720-8"
       is_visible="true" />
    <inkscape:path-effect
       is_visible="true"
       id="path-effect4716-6"
       effect="spiro" />
    <inkscape:path-effect
       is_visible="true"
       id="path-effect4712-1"
       effect="spiro" />
    <inkscape:path-effect
       effect="spiro"
       id="path-effect4708-4"
       is_visible="true" />
    <inkscape:path-effect
       effect="spiro"
       id="path-effect4704-3"
       is_visible="true" />
    <inkscape:path-effect
       is_visible="true"
       id="path-effect4681-1"
       effect="spiro" />
  </defs>
  <sodipodi:namedview
     id="base"
     pagecolor="#ffff2a"
     bordercolor="#666666"
     borderopacity="1.0"
     inkscape:pageopacity="0"
     inkscape:pageshadow="2"
     inkscape:zoom="0.7"
     inkscape:cx="523.08013"
     inkscape:cy="218.64517"
     inkscape:document-units="px"
     inkscape:current-layer="layer1"
     showgrid="true"
     inkscape:window-width="1280"
     inkscape:window-height="751"
     inkscape:window-x="11"
     inkscape:window-y="0"
     inkscape:window-maximized="0"
     fit-margin-top="0"
     fit-margin-left="0"
     fit-margin-right="0"
     fit-margin-bottom="0">
    <inkscape:grid
       type="xygrid"
       id="grid4677"
       originx="-59.994226"
       originy="-457.58557" />
  </sodipodi:namedview>
  <metadata
     id="metadata4674">
    <rdf:RDF>
      <cc:Work
         rdf:about="">
        <dc:format>image/svg+xml</dc:format>
        <dc:type
           rdf:resource="http://purl.org/dc/dcmitype/StillImage" />
        <dc:title />
      </cc:Work>
    </rdf:RDF>
  </metadata>
  <g
     inkscape:label="Calque 1"
     inkscape:groupmode="layer"
     id="layer1"
     transform="translate(-59.994221,-8.3301979)">
    <rect
       style="opacity:1;fill:#ffffff;fill-opacity:1;stroke:none;stroke-width:85.3262558;stroke-linecap:round;stroke-linejoin:round;stroke-miterlimit:4;stroke-dasharray:none;stroke-dashoffset:0;stroke-opacity:1"
       id="rect4563"
       width="913.12799"
       height="172.45039"
       x="99.949226"
       y="413.80008"
       ry="86.225197" />
    <g
       id="g4557"
       style="stroke:#ffffff;stroke-opacity:1"
       transform="translate(420.55855,334.23281)">
      <g
         transform="translate(-420.22346,-333.35034)"
         id="g4551"
         style="stroke:#ffffff;stroke-opacity:1">
        <path
           style="fill:none;fill-rule:evenodd;stroke:#ffffff;stroke-width:100;stroke-linecap:round;stroke-linejoin:round;stroke-miterlimit:4;stroke-dasharray:none;stroke-opacity:1"
           d="m 780.72514,86.826853 182.02034,162.223357 -182.02034,137.77664 -448.57142,0"
           id="path4547"
           inkscape:path-effect="#path-effect4549"
           inkscape:original-d="M 780.72514,86.826853 962.74548,249.05021 780.72514,386.82685 c -233.10024,423.85192 -299.04761,0 -448.57142,0"
           inkscape:connector-curvature="0"
           sodipodi:nodetypes="cccc" />
        <path
           sodipodi:nodetypes="cccc"
           inkscape:connector-curvature="0"
           inkscape:original-d="m 329.61132,386.41303 -180,-140 180,-160.000004 c 233.10024,-423.851916 299.04761,0 448.57142,0"
           inkscape:path-effect="#path-effect4545"
           id="path4543"
           d="m 329.61132,386.41303 -180,-140 180,-160.000004 448.57142,0"
           style="fill:none;fill-rule:evenodd;stroke:#ffffff;stroke-width:100;stroke-linecap:round;stroke-linejoin:round;stroke-miterlimit:4;stroke-dasharray:none;stroke-opacity:1" />
      </g>
      <path
         transform="translate(136.42941,60.916716)"
         inkscape:connector-curvature="0"
         id="path4555"
         d="m -266.55474,-102.24115 c -30.94903,-24.01718 -57.45674,-44.78187 -58.90601,-46.14376 -2.12441,-1.9963 7.27188,-11.28458 48.48732,-47.92996 28.1173,-24.99959 55.49606,-49.2372 60.84169,-53.86135 l 9.71932,-8.40754 204.9048989,0 204.9049211,0 54.90239,48.9924 c 30.19633,26.94582 58.04238,51.7352 61.88011,55.08751 l 6.97769,6.0951 -59.43117,44.9176 -59.4312,44.917598 -209.2894826,0 -209.2894974,0 -56.27098,-43.667598 z"
         style="opacity:1;fill:#ffffff;fill-opacity:1;stroke:#ffffff;stroke-width:202.03050232;stroke-linecap:round;stroke-linejoin:round;stroke-miterlimit:4;stroke-dasharray:none;stroke-dashoffset:0;stroke-opacity:1" />
    </g>
    <text
       xml:space="preserve"
       style="font-style:normal;font-weight:normal;font-size:147.65745544px;line-height:125%;font-family:sans-serif;letter-spacing:0px;word-spacing:0px;fill:#000000;fill-opacity:1;stroke:none;stroke-width:1px;stroke-linecap:butt;stroke-linejoin:miter;stroke-opacity:1"
       x="167.90298"
       y="554.69543"
       id="text4769"
       sodipodi:linespacing="125%"><tspan
         sodipodi:role="line"
         id="tspan4771"
         x="167.90298"
         y="554.69543"
         style="font-style:normal;font-variant:normal;font-weight:900;font-stretch:normal;font-family:Lato;-inkscape-font-specification:'Lato Heavy'"><tspan
           style="fill:#68c9ea;fill-opacity:1"
           id="tspan4773"><tspan
   style="fill:#5d47b6;fill-opacity:1"
   id="tspan7075"><tspan
   style="fill:#fd7092;fill-opacity:1"
   id="tspan4585">MIT</tspan> Code</tspan>It</tspan><tspan
           style="fill:#5d47b6;fill-opacity:1"
           id="tspan4779" /></tspan></text>
    <text
       transform="scale(1.0002933,0.99970678)"
       sodipodi:linespacing="125%"
       id="text4376"
       y="376.90659"
       x="328.35321"
       style="font-style:normal;font-weight:normal;font-size:35.26388931px;line-height:125%;font-family:sans-serif;letter-spacing:0px;word-spacing:0px;fill:#5d47b6;fill-opacity:1;stroke:none;stroke-width:1px;stroke-linecap:butt;stroke-linejoin:miter;stroke-opacity:1"
       xml:space="preserve"><tspan
         style="font-style:normal;font-variant:normal;font-weight:bold;font-stretch:condensed;font-size:158.68754578px;font-family:'Roboto Condensed';-inkscape-font-specification:'Roboto Condensed, Bold Condensed';letter-spacing:0px;fill:#5d47b6;fill-opacity:1"
         y="376.90659"
         x="328.35321"
         id="tspan4378"
         sodipodi:role="line" /></text>
    <path
       style="fill:none;fill-rule:evenodd;stroke:#68c9ea;stroke-width:30;stroke-linecap:round;stroke-linejoin:round;stroke-miterlimit:4;stroke-dasharray:none;stroke-opacity:1"
       d="m 331.42857,386.64792 -180,-140 180,-159.999996"
       id="path7845"
       inkscape:path-effect="#path-effect7847"
       inkscape:original-d="m 331.42857,386.64792 -180,-140 180,-159.999996"
       inkscape:connector-curvature="0"
       sodipodi:nodetypes="ccc" />
    <path
       inkscape:connector-curvature="0"
       inkscape:original-d="m 781.59837,86.647924 180,159.999996 -180,140"
       inkscape:path-effect="#path-effect7851"
       id="path7849"
       d="m 781.59837,86.647924 180,159.999996 -180,140"
       style="fill:none;fill-rule:evenodd;stroke:#68c9ea;stroke-width:30;stroke-linecap:round;stroke-linejoin:round;stroke-miterlimit:4;stroke-dasharray:none;stroke-opacity:1" />
    <g
       id="g7861"
       transform="translate(0,-9.2897166)">
      <circle
         r="60"
         cy="152.36223"
         cx="580"
         id="path7081"
         style="opacity:1;fill:none;fill-opacity:1;stroke:#444444;stroke-width:10;stroke-linecap:butt;stroke-linejoin:miter;stroke-miterlimit:4;stroke-dasharray:none;stroke-dashoffset:0;stroke-opacity:1" />
      <path
         sodipodi:nodetypes="caaaacacacc"
         inkscape:connector-curvature="0"
         inkscape:original-d="m 529.88432,118.31345 c 0,0 -17.62993,-17.7916 -29.19041,-20.836141 -9.91122,-2.610191 -22.71915,-3.358776 -30.57844,3.219741 -8.08333,6.76605 -5.98826,20.21557 -8.7961,30.37607 -3.0975,11.20865 2.08487,29.86448 -8.88009,33.7372 -5.07588,1.79275 -13.00732,-9.57162 -13.00732,-9.57162 0,0 20.17779,25.17544 34.216,24.61224 10.34012,-0.41484 18.82044,-7.09271 23.66921,-20.08932 1.7149,-5.09858 -2.4468,-6.88342 -1.10206,-9.93028 4.25971,-9.6515 25.59218,-18.62013 25.59218,-18.62013 z"
         inkscape:path-effect="#path-effect7093"
         id="path7091"
         d="m 529.88432,118.31345 c -7.35113,-9.65641 -17.66937,-17.02158 -29.19041,-20.836141 -5.08262,-1.682832 -10.44727,-2.692044 -15.78957,-2.338789 -5.3423,0.353256 -10.67189,2.135751 -14.78887,5.55853 -4.23424,3.52027 -6.99036,8.61172 -8.29614,13.96112 -1.30578,5.3494 -1.23794,10.95816 -0.49996,16.41495 0.86725,6.41268 2.65026,12.81063 2.01082,19.25002 -0.31973,3.21969 -1.27258,6.42263 -3.10991,9.08587 -1.83734,2.66325 -4.612,4.74853 -7.781,5.40131 -2.97168,0.61213 -6.19008,-0.0928 -8.63381,-1.89104 -2.44374,-1.79826 -4.07404,-4.66133 -4.37351,-7.68058 2.18433,7.22846 6.80559,13.69698 12.93569,18.10648 6.1301,4.4095 13.73247,6.73368 21.28031,6.50576 5.72236,-0.17279 11.49953,-1.84594 16.01471,-5.36566 2.25759,-1.75986 4.17783,-3.96625 5.52617,-6.49129 1.34833,-2.52504 2.11654,-5.36991 2.12833,-8.23237 0.0137,-3.33358 -0.97959,-6.59893 -1.10206,-9.93028 -0.22856,-6.21707 2.80822,-12.4633 7.83887,-16.12345 5.03065,-3.66016 11.90828,-4.62737 17.75331,-2.49668 l 8.07703,-12.89776 z"
         style="fill:#444444;fill-opacity:1;fill-rule:evenodd;stroke:#444444;stroke-width:10;stroke-linecap:butt;stroke-linejoin:round;stroke-miterlimit:4;stroke-dasharray:none;stroke-opacity:1" />
      <path
         sodipodi:nodetypes="ccccccscccccscscccaacccscacac"
         inkscape:connector-curvature="0"
         d="m 560,212.36221 -20.40532,27.8249 c -12.06673,10.83873 -23.65275,22.21261 -34.7126,34.077 -11.51071,12.34805 -22.45141,25.22742 -32.77561,38.58338 -8.35207,6.05614 -16.875,11.87664 -25.55524,17.45224 -14.81233,9.51444 -30.08293,18.31537 -45.74116,26.36208 -3.24616,2.45376 -5.53816,6.138 -6.30467,10.13437 -0.76652,3.99636 -3.3e-4,8.26717 2.10759,11.74786 1.80774,2.98502 4.58019,5.37534 7.79883,6.7239 3.21864,1.34856 6.86695,1.64845 10.2626,0.84357 l 48.9641,-28.36035 33.36384,-37.68833 -12.98658,14.40475 c -9.57675,11.402 -19.42122,22.57914 -29.52256,33.51911 -5.57866,6.04181 -11.24118,12.01762 -16.4245,18.40182 -3.30984,4.07667 -6.42018,8.31531 -9.31617,12.69567 -0.0149,3.32452 0.94195,6.64766 2.72262,9.45513 1.78066,2.80747 4.37892,5.08956 7.39268,6.49309 5.15655,2.40145 11.49355,2.07442 16.3755,-0.8451 4.88195,-2.91951 8.16844,-8.34753 8.49266,-14.02661 9.80857,-6.42868 19.02206,-13.76488 27.48436,-21.88432 20.39509,-19.56875 36.35467,-43.73393 46.34551,-70.17402 19.35332,-10.53954 36.22706,-25.59824 48.89172,-43.63263 9.18719,-13.08249 16.47184,-28.01012 29.04824,-37.87876 9.85639,-7.73426 22.07746,-11.63541 33.59315,-16.5706 21.13484,-9.05759 40.5812,-22.03745 57.05302,-38.08115 l 20.2352,-32.15951 c 2.2919,-3.0461 3.14254,-7.13077 2.25715,-10.83855 -0.88539,-3.70778 -3.48979,-6.96742 -6.91071,-8.64934 -3.87103,-1.90322 -8.69934,-1.70697 -12.40313,0.50416 -3.7038,2.21112 -6.16757,6.36816 -6.32903,10.67873 -8.3302,13.79771 -19.38709,25.94194 -32.34523,35.52608 -12.34388,9.12982 -26.40263,15.93288 -41.22185,19.94733 -7.62211,9.96274 -18.21109,17.62582 -30.05713,21.75186 -13.18821,4.59353 -27.87794,4.75339 -41.16299,0.44796"
         id="path7095"
         inkscape:original-d="m 560,212.36221 c -19.66661,-8.90887 -17.80352,15.69328 -20.40532,27.8249 -6.18354,16.69737 -26.58253,18.65825 -34.7126,34.077 -8.47843,14.20283 -17.38408,30.67802 -32.77561,38.58338 -8.16283,6.24996 -18.5035,13.04719 -25.55524,17.45224 -13.48004,9.49077 -31.79211,15.90689 -45.74116,26.36208 -5.21657,5.65393 -6.5617,14.96098 -4.19708,21.88223 2.36462,6.92126 8.43899,11.45672 18.06143,7.56747 15.9634,-8.40903 28.47033,-26.04453 48.9641,-28.36035 18.10718,-7.8372 19.45193,-22.7463 33.36384,-37.68833 7.51527,-10.50264 -7.97071,13.73962 -12.98658,14.40475 -14.71909,10.65036 -12.44524,26.16856 -29.52256,33.51911 -6.83875,2.67375 -11.92637,11.60853 -16.4245,18.40182 -4.49813,6.79328 -10.54964,4.30221 -9.31617,12.69567 -1.20158,8.47946 4.23936,13.41312 10.1153,15.94822 5.87595,2.53509 21.4726,-5.18552 24.86816,-14.87171 6.80298,-16.03691 17.05693,-8.78351 27.48436,-21.88432 9.30466,-10.69257 34.54847,-63.16005 46.34551,-70.17402 6.31276,-31.63281 34.03128,-27.62321 48.89172,-43.63263 10.82491,-11.66187 16.75039,-27.78218 29.04824,-37.87876 9.65021,-7.92285 21.53896,-10.85378 33.59315,-16.5706 22.67706,-10.43867 41.05047,-18.8129 57.05302,-38.08115 12.55529,-12.82969 12.80399,-15.74078 20.2352,-32.15951 -3.69726,-6.12145 2.35495,-22.50342 -4.65356,-19.48789 -7.00851,3.01554 -14.2206,8.28573 -18.73216,11.18289 -4.64559,13.91196 -19.51364,25.94329 -32.34523,35.52608 -12.23056,9.13393 -41.22185,19.94733 -41.22185,19.94733 0,0 -18.31236,17.87719 -30.05713,21.75186 -13.03098,4.29902 -41.79243,1.98589 -41.16299,0.44796"
         inkscape:path-effect="#path-effect7097"
         style="fill:#fd7092;fill-opacity:1;fill-rule:evenodd;stroke:#444444;stroke-width:10;stroke-linecap:butt;stroke-linejoin:round;stroke-miterlimit:4;stroke-dasharray:none;stroke-opacity:1" />
      <path
         sodipodi:nodetypes="cccccccccccc"
         inkscape:connector-curvature="0"
         d="m 642.14286,161.64792 8.60212,-6.73637 24.04657,-24.74915 26.42858,-25 12.07864,-4.29023 c 2.3805,-2.452434 3.92355,-5.703464 4.31839,-9.09836 0.39484,-3.394896 -0.3609,-6.913284 -2.11502,-9.84659 -1.05531,-1.764727 -2.46778,-3.323019 -4.16025,-4.490708 -1.69246,-1.167689 -3.66636,-1.93868 -5.71057,-2.160324 -1.9677,-0.213348 -3.97376,0.08176 -5.84459,0.727775 -1.87084,0.646013 -3.61103,1.636494 -5.20593,2.808519 -3.18981,2.34405 -5.78545,5.384978 -8.49029,8.275186 -5.36949,5.737477 -11.27402,10.97401 -17.61198,15.619472 l -18.97256,18.2182 -9.43524,8.98268 -0.0707,2.45419"
         id="path7099"
         inkscape:original-d="m 642.14286,161.64792 c 3.37448,1.12006 5.071,-4.00102 8.60212,-6.73637 8.57546,-7.68739 15.27461,-17.26833 24.04657,-24.74915 10.56303,-7.71348 15.56057,-17.79203 26.42858,-25 2.32766,-3.15539 9.33362,-1.28517 12.07864,-4.29023 3.50262,-5.523931 5.80717,-12.892039 2.20337,-18.94495 -2.01982,-3.526421 -5.31322,-7.468738 -9.87082,-6.651032 -7.70638,1.387224 -13.74601,6.919257 -19.54081,11.81148 -5.95061,5.125114 -11.05627,11.223745 -17.61198,15.619472 -6.89639,5.45751 -12.50352,12.32719 -18.97256,18.2182 -3.69879,2.37962 -10.81392,2.88686 -9.43524,8.98268 -0.008,0.81831 -0.007,1.63767 -0.0707,2.45419"
         inkscape:path-effect="#path-effect7101"
         style="fill:#fd7092;fill-opacity:1;fill-rule:evenodd;stroke:#444444;stroke-width:10;stroke-linecap:butt;stroke-linejoin:miter;stroke-miterlimit:4;stroke-dasharray:none;stroke-opacity:1" />
      <path
         sodipodi:nodetypes="caaacaaaacaacacc"
         inkscape:connector-curvature="0"
         d="m 540,192.36221 c -34.21946,4.74797 -68.05757,12.24169 -101.08209,22.38545 -8.12898,2.49688 -16.214,5.1559 -24.12636,8.27188 -7.19944,2.83523 -14.25061,6.04667 -21.52026,8.69671 -11.82406,4.31028 -24.19606,7.11491 -36.72296,8.32477 -1.51367,4.60408 -1.73598,9.62522 -0.63512,14.34505 1.10086,4.71983 3.52165,9.12449 6.91603,12.58381 3.38114,3.44583 7.63326,5.90829 11.2178,9.14201 1.79227,1.61686 3.42596,3.44213 4.59256,5.5553 1.16661,2.11317 1.84921,4.53353 1.68077,6.94145 -0.17811,2.54625 -1.28998,4.95076 -2.73351,7.05583 -1.44353,2.10507 -3.2189,3.95671 -4.91071,5.86797 -1.69181,1.91125 -3.32384,3.91717 -4.41166,6.22624 -1.08782,2.30906 -1.59757,4.97081 -0.96161,7.44279 0.51524,2.00275 1.76579,3.78291 3.3833,5.07136 1.61751,1.28846 3.5869,2.09942 5.61942,2.48061 4.06505,0.76238 8.25727,-0.15781 12.19371,-1.42679 10.49815,-3.38427 20.16423,-9.31881 27.93256,-17.14936 8.32395,-4.70034 16.87358,-9.001 25.60957,-12.88221 8.17958,-3.63401 16.5352,-6.90671 24.4339,-11.11648 17.998,-9.5924 33.36772,-24.05951 44.0305,-41.44477 4.61115,-8.0642 10.90775,-15.15951 18.36669,-20.6965 5.28748,-3.92505 11.15265,-7.07053 17.34759,-9.3035 l 4.49417,-0.65733"
         id="path7103"
         inkscape:original-d="m 540,192.36221 c -34.99917,0.0505 -67.86018,13.04354 -101.08209,22.38545 -8.18425,2.30139 -16.16124,5.29946 -24.12636,8.27188 -7.24873,2.70508 -14.13681,6.3845 -21.52026,8.69671 -11.97797,3.75103 -25.08547,3.32357 -36.72296,8.32477 -7.89265,8.03564 2.23468,18.64725 6.28091,26.92886 4.07145,8.33323 16.45189,12.4225 17.49113,21.63876 1.10587,9.80718 -17.01596,17.56975 -13.01749,26.59283 2.97963,6.72394 13.90844,7.11251 21.19643,6.12518 10.82675,-1.46675 17.0341,-14.28037 27.93256,-17.14936 8.90613,-3.52563 16.99075,-8.7558 25.60957,-12.88221 8.07066,-3.86397 17.00399,-6.13028 24.4339,-11.11648 16.73644,-11.23179 32.68301,-24.61826 44.0305,-41.44477 9.14303,-3.73906 11.12908,-14.97875 18.36669,-20.6965 5.14877,-4.06756 12.67259,-2.92404 17.34759,-9.3035 13.77988,3.62838 6.56231,-1.87035 4.49417,-0.65733"
         inkscape:path-effect="#path-effect7105"
         style="fill:#5d47b6;fill-opacity:1;fill-rule:evenodd;stroke:#444444;stroke-width:10;stroke-linecap:butt;stroke-linejoin:round;stroke-miterlimit:4;stroke-dasharray:none;stroke-opacity:1" />
      <path
         sodipodi:nodetypes="cssssssc"
         inkscape:connector-curvature="0"
         inkscape:original-d="m 612.11256,102.04617 c -4.68181,7.4752 -1.96584,5.55834 -6.07898,7.90592 -3.89472,2.22292 -7.78483,0.95389 -11.15263,2.87607 -6.09278,3.47746 -15.83357,11.51728 -19.4292,16.90478 -1.24487,1.86522 -3.55082,12.49458 -5.1439,13.40383 -4.26758,2.43573 -2.45071,9.93973 -8.43939,16.99419 -3.2367,3.81272 2.50932,8.47285 -1.47142,11.93637 -4.81967,4.19345 -8.9217,30.70453 -15.38038,26.33948"
         inkscape:path-effect="#path-effect7824"
         id="path7822"
         d="m 612.11256,102.04617 c -0.79343,3.33172 -3.06289,6.28323 -6.07898,7.90592 -3.39425,1.82615 -7.41337,1.94135 -11.15263,2.87607 -4.30573,1.07633 -8.304,3.28401 -11.61687,6.23743 -3.31288,2.95342 -5.94617,6.64053 -7.81233,10.66735 -2.01313,4.34396 -3.14037,9.05543 -5.1439,13.40383 -2.65373,5.75955 -6.83032,10.86022 -8.43939,16.99419 -1.01838,3.88221 -0.94326,7.95772 -1.47142,11.93637 -1.37364,10.34772 -7.0436,20.05773 -15.38038,26.33948"
         style="fill:none;fill-rule:evenodd;stroke:#444444;stroke-width:10;stroke-linecap:round;stroke-linejoin:miter;stroke-miterlimit:4;stroke-dasharray:none;stroke-opacity:1" />
      <path
         sodipodi:nodetypes="ccccc"
         inkscape:connector-curvature="0"
         inkscape:original-d="m 500.10151,280.74545 34.24367,32.52538 c 3.67771,-4.61852 7.70217,-8.03867 12.72587,-10.90862 l -36.46446,-35.05076 z"
         inkscape:path-effect="#path-effect7855"
         id="path7853"
         d="m 500.10151,280.74545 34.24367,32.52538 12.72587,-10.90862 -36.46446,-35.05076 -10.50508,13.434 z"
         style="fill:#68c9ea;fill-opacity:1;fill-rule:evenodd;stroke:#444444;stroke-width:8;stroke-linecap:round;stroke-linejoin:round;stroke-miterlimit:4;stroke-dasharray:none;stroke-opacity:1" />
      <path
         transform="translate(136.42941,70.206421)"
         inkscape:connector-curvature="0"
         id="path7859"
         d="m 402.05148,117.56067 c -10.40455,-12.39584 -15.1914,-29.613363 -12.32329,-44.32488 5.12726,-26.299512 24.80251,-43.705205 50.96378,-45.085067 11.34223,-0.598239 24.92656,2.163395 26.97928,5.484768 0.42581,0.68897 -1.97734,1.949657 -5.34034,2.801527 -16.07291,4.071383 -24.43971,11.271192 -29.76567,25.61399 -1.62784,4.383773 -4.88849,11.408797 -7.24589,15.611166 -2.86167,5.101303 -4.94804,11.729297 -6.27765,19.942891 -1.92179,11.871765 -7.0724,22.664955 -11.51425,24.128285 -0.85034,0.28014 -3.31453,-1.59756 -5.47597,-4.17268 z"
         style="opacity:1;fill:#444444;fill-opacity:1;stroke:#444444;stroke-width:11.4285717;stroke-linecap:round;stroke-linejoin:round;stroke-miterlimit:4;stroke-dasharray:none;stroke-dashoffset:0;stroke-opacity:1" />
    </g>
    <path
       style="fill:none;fill-rule:evenodd;stroke:none;stroke-width:1px;stroke-linecap:butt;stroke-linejoin:miter;stroke-opacity:1"
       d="m 59.99999,252.3622 c 0.805888,-1.04765 99.88169,73.82913 262.68788,198.67642 0,0 5e-5,4e-5 5e-5,4e-5 -0.16364,43.1441 -0.4158,89.54134 -0.7566,139.39221 137.74926,-0.22254 299.22237,-0.38945 475.65426,-0.48306 -0.53221,-45.8594 -1.07513,-91.78651 -1.63955,-139.48438 48.7605,-40.17146 98.26165,-80.92165 149.10384,-122.76077 30.81747,-25.36036 61.56343,-50.6565 91.66803,-75.42365 C 945.52596,169.10988 860.33254,91.340315 778.42354,16.394211 612.92435,16.191434 464.54024,15.867942 341.14169,15.4485 c 0,0 -5e-5,4.5e-5 -5e-5,4.5e-5 C 168.48905,162.73466 60.907082,253.42047 59.99999,252.3622 59.092673,251.30366 165.26914,158.76887 338.85824,9.2759391 c 0,0 5e-5,-4.53e-5 5e-5,-4.53e-5 C 463.26353,8.8564085 613.52445,8.5330032 781.57644,8.3301827 864.53805,85.572262 950.91243,166.17311 1043.2821,252.44539 c -29.8876,25.22633 -60.41425,50.99069 -91.02765,76.82275 -50.50148,42.61392 -99.702,84.11514 -148.2005,124.99283 -0.56454,48.07825 -1.10722,94.32618 -1.63957,140.51564 -180.25761,-0.0937 -344.79367,-0.26051 -484.34572,-0.48308 -0.3408,-50.29794 -0.59297,-97.10058 -0.7566,-140.60779 0,0 -5e-5,-4e-5 -5e-5,-4e-5 C 156.86515,329.8771 59.194245,253.40967 59.99999,252.3622 Z"
       id="path4473"
       inkscape:path-effect="#path-effect4475;#path-effect4477"
       inkscape:original-d="m 59.99999,252.3622 260,200 0,140 480,0 0,-140 240.00001,-200 -260.00001,-240.000003 -440,0 z"
       inkscape:connector-curvature="0" />
  </g>
</svg>
